<?xml version="1.0" encoding="UTF-8"?>
<svg version="1.1" xmlns="http://www.w3.org/2000/svg" width="600" height="143">
<path d="M0 0 C18.78420606 15.56995848 31.21575568 37.88630132 34.85253906 62.00512695 C35.24122513 66.36365164 35.62085751 70.67900955 34.85253906 75.00512695 C30.29246664 78.04517523 25.77985896 77.37356448 20.41503906 77.38012695 C19.36509766 77.40461914 18.31515625 77.42911133 17.23339844 77.4543457 C16.22212891 77.45821289 15.21085938 77.46208008 14.16894531 77.46606445 C12.78364624 77.47839111 12.78364624 77.47839111 11.37036133 77.4909668 C8.08716895 76.85744088 6.91084367 75.58639035 4.85253906 73.00512695 C4.20019531 70.26293945 4.20019531 70.26293945 3.91503906 67.13012695 C1.77705437 50.5653934 -5.62538024 37.76600725 -17.14746094 26.00512695 C-17.73914063 25.37735352 -18.33082031 24.74958008 -18.94042969 24.1027832 C-32.17695405 11.21689524 -50.32089953 7.52395495 -68.12011719 7.65087891 C-75.14782444 7.82209457 -81.50584897 8.58820899 -88.14746094 11.00512695 C-89.10136719 11.32223633 -90.05527344 11.6393457 -91.03808594 11.96606445 C-108.49478412 18.4095054 -122.01314965 31.37639164 -130.14746094 48.00512695 C-133.20480885 55.27588247 -134.69169883 62.35635344 -135.45996094 70.19262695 C-136.30709992 73.65819552 -137.39365229 74.776119 -140.14746094 77.00512695 C-142.6652832 77.4909668 -142.6652832 77.4909668 -145.46386719 77.46606445 C-146.47513672 77.46219727 -147.48640625 77.45833008 -148.52832031 77.4543457 C-149.57826172 77.42985352 -150.62820312 77.40536133 -151.70996094 77.38012695 C-152.76376953 77.37883789 -153.81757813 77.37754883 -154.90332031 77.3762207 C-162.72560116 77.28636681 -162.72560116 77.28636681 -166.14746094 75.00512695 C-169.55581671 57.53346536 -159.38156307 35.16750729 -150.29589844 21.0168457 C-146.94476521 16.31916622 -143.17187135 12.13073144 -139.14746094 8.00512695 C-138.32246094 7.13887695 -137.49746094 6.27262695 -136.64746094 5.38012695 C-98.27362812 -31.07501422 -41.42383756 -33.20472742 0 0 Z " fill="#222952" transform="translate(177.1474609375,30.994873046875)"/>
<path d="M0 0 C9.57 0 19.14 0 29 0 C32.375 9 32.375 9 33.53393555 13.7734375 C33.92400032 15.36418091 33.92400032 15.36418091 34.32194519 16.98706055 C34.59082047 18.10508057 34.85969574 19.22310059 35.13671875 20.375 C35.56317436 22.1226062 35.56317436 22.1226062 35.99824524 23.90551758 C36.89929176 27.60257044 37.79349248 31.3012394 38.6875 35 C39.29967789 37.51703714 39.91230333 40.03396547 40.52539062 42.55078125 C42.02211004 48.69927081 43.51322239 54.84909928 45 61 C48.57314738 48.05732381 52.04508494 35.10125871 55.25 22.0625 C55.75874772 19.9995426 56.26829114 17.93678878 56.77923584 15.87437439 C57.23239742 14.04434141 57.68318724 12.21372158 58.13378906 10.38305664 C59.02560545 6.89999585 59.99674397 3.45233257 61 0 C64.96930989 -0.02465881 68.93859034 -0.04284023 72.90795898 -0.05493164 C74.25920386 -0.05997057 75.61044326 -0.06680177 76.96166992 -0.07543945 C78.90020434 -0.08752419 80.838778 -0.09269828 82.77734375 -0.09765625 C84.52905884 -0.10551147 84.52905884 -0.10551147 86.31616211 -0.11352539 C89 0 89 0 90 1 C90.20884116 2.3509376 90.35660627 3.71141663 90.47802734 5.07299805 C90.55671051 5.93947464 90.63539368 6.80595123 90.71646118 7.69868469 C90.83747696 9.12207405 90.83747696 9.12207405 90.9609375 10.57421875 C91.04717377 11.55847336 91.13341003 12.54272797 91.22225952 13.55680847 C92.08663244 23.63135604 92.79119165 33.71545702 93.43261719 43.80639648 C93.62605885 46.8290452 93.82849743 49.8510101 94.03125 52.87304688 C94.77513297 64.27867253 95.13931863 75.56953987 95 87 C89.06 87 83.12 87 77 87 C75.64574851 84.29149702 75.74990605 82.01968846 75.61108398 78.98974609 C75.55109726 77.72858978 75.49111053 76.46743347 75.42930603 75.1680603 C75.36813919 73.78652362 75.30707076 72.40498258 75.24609375 71.0234375 C75.18065549 69.61380208 75.11481888 68.20418511 75.04859924 66.79458618 C74.87529675 63.0826538 74.70741738 59.37049509 74.54064941 55.65826416 C74.36955411 51.87098351 74.19335423 48.08394078 74.01757812 44.296875 C73.67337661 36.86480729 73.33490139 29.43249321 73 22 C72.80621262 22.71108414 72.61242523 23.42216827 72.4127655 24.15480042 C70.57921841 30.87928264 68.74080457 37.60241751 66.89701366 44.32409763 C65.94943548 47.77922899 65.00369896 51.23484186 64.06225586 54.69165039 C63.15243137 58.03208786 62.23765902 61.37113499 61.31954384 64.7093029 C60.8027515 66.59324371 60.29099781 68.47856438 59.77934265 70.36390686 C59.45923721 71.52458176 59.13913177 72.68525665 58.80932617 73.88110352 C58.53174973 74.895923 58.25417328 75.91074249 57.96818542 76.95631409 C56.8770021 80.38666867 55.41800079 83.69133149 54 87 C47.07 87 40.14 87 33 87 C27.16459343 66.04341729 21.52866773 45.03943771 16 24 C14.81751576 26.36496847 14.77556235 28.01848973 14.62695312 30.65820312 C14.57019409 31.62681274 14.51343506 32.59542236 14.45495605 33.59338379 C14.39763306 34.64537964 14.34031006 35.69737549 14.28125 36.78125 C14.21844849 37.86450562 14.15564697 38.94776123 14.09094238 40.06384277 C13.88982482 43.54233911 13.69455151 47.02113073 13.5 50.5 C13.30467536 53.95025294 13.10805812 57.40042094 12.90905762 60.85046387 C12.78539797 62.99852483 12.66393609 65.14671384 12.54504395 67.29504395 C11.50565283 85.49434717 11.50565283 85.49434717 10 87 C7.48863896 87.09975032 5.01096585 87.13882183 2.5 87.125 C1.79746094 87.12886719 1.09492188 87.13273437 0.37109375 87.13671875 C-4.87338622 87.12661378 -4.87338622 87.12661378 -6 86 C-5.98229904 83.94130158 -5.88797465 81.88326078 -5.765625 79.828125 C-5.72797531 79.17440414 -5.69032562 78.52068329 -5.65153503 77.84715271 C-5.52315509 75.6477406 -5.3867796 73.44890467 -5.25 71.25 C-5.15738959 69.70680173 -5.06502825 68.16358849 -4.97290039 66.62036133 C-4.65888714 61.41291725 -4.33028544 56.2064338 -4 51 C-3.93858826 50.02746277 -3.87717651 49.05492554 -3.81390381 48.05291748 C-3.42706125 41.93512889 -3.03423403 35.81775916 -2.63439941 29.70080566 C-2.50350863 27.6976816 -2.37337726 25.69450777 -2.24401855 23.69128418 C-2.0604256 20.86037273 -1.8726469 18.02977019 -1.68359375 15.19921875 C-1.62946823 14.35685165 -1.57534271 13.51448456 -1.51957703 12.64659119 C-1.46598526 11.85789139 -1.41239349 11.06919159 -1.35717773 10.2565918 C-1.31213608 9.57606247 -1.26709442 8.89553314 -1.22068787 8.19438171 C-0.94434898 5.44664119 -0.45400444 2.72402664 0 0 Z " fill="#21284F" transform="translate(242,20)"/>
<path d="M0 0 C1.48306641 -0.00193359 1.48306641 -0.00193359 2.99609375 -0.00390625 C4.53716797 0.00189453 4.53716797 0.00189453 6.109375 0.0078125 C7.62724609 0.00201172 7.62724609 0.00201172 9.17578125 -0.00390625 C18.09527767 0.00766249 25.47699773 0.4853402 33.546875 4.5078125 C34.18431641 4.81203125 34.82175781 5.11625 35.47851562 5.4296875 C51.66215904 13.24593633 62.73924342 24.53443503 69.859375 41.1328125 C70.18808594 41.89207031 70.51679688 42.65132812 70.85546875 43.43359375 C73.29187014 49.8102041 73.55598518 56.36408091 73.859375 63.1328125 C70.5022463 65.3708983 69.34800136 65.38931304 65.421875 65.3984375 C64.36226563 65.40101562 63.30265625 65.40359375 62.2109375 65.40625 C60.55191406 65.39464844 60.55191406 65.39464844 58.859375 65.3828125 C57.75335938 65.39054687 56.64734375 65.39828125 55.5078125 65.40625 C54.44820313 65.40367188 53.38859375 65.40109375 52.296875 65.3984375 C51.32621094 65.39618164 50.35554688 65.39392578 49.35546875 65.39160156 C46.859375 65.1328125 46.859375 65.1328125 43.859375 63.1328125 C43.05828723 60.63014413 42.37785932 58.17459004 41.734375 55.6328125 C39.20546952 46.76229705 35.1647812 40.52259655 27.23046875 35.453125 C17.99216178 30.57926409 7.82273293 29.56149086 -2.328125 32.2578125 C-12.50358866 35.76940911 -19.12470405 41.98926983 -23.828125 51.5703125 C-25.13831049 55.12653026 -26.35279283 58.6982911 -27.4921875 62.3125 C-28.140625 64.1328125 -28.140625 64.1328125 -29.140625 65.1328125 C-33.25933415 65.38623876 -37.39004433 65.3180407 -41.515625 65.3203125 C-42.67835937 65.33255859 -43.84109375 65.34480469 -45.0390625 65.35742188 C-46.1528125 65.35935547 -47.2665625 65.36128906 -48.4140625 65.36328125 C-49.95199463 65.36944458 -49.95199463 65.36944458 -51.52099609 65.37573242 C-54.140625 65.1328125 -54.140625 65.1328125 -57.140625 63.1328125 C-56.84668432 48.78316281 -52.53020556 34.06309407 -42.578125 23.3828125 C-41.77375 22.6403125 -40.969375 21.8978125 -40.140625 21.1328125 C-39.3775 20.1634375 -38.614375 19.1940625 -37.828125 18.1953125 C-29.43985655 7.96056987 -13.19477498 0.01669017 0 0 Z " fill="#232A53" transform="translate(103.140625,42.8671875)"/>
<path d="M0 0 C3.88509699 5.04012583 5.12359705 8.67981033 5.12939453 14.9362793 C5.13254669 15.91376633 5.13569885 16.89125336 5.13894653 17.89836121 C5.1369223 18.9463942 5.13489807 19.99442719 5.1328125 21.07421875 C5.13376923 22.15379349 5.13472595 23.23336823 5.13571167 24.34565735 C5.13639162 26.62440041 5.1345502 28.90314543 5.13037109 31.18188477 C5.12500467 34.6844513 5.13033035 38.1868905 5.13671875 41.68945312 C5.13605824 43.90104195 5.13477765 46.1126307 5.1328125 48.32421875 C5.13483673 49.37832443 5.13686096 50.43243011 5.13894653 51.51847839 C5.13421829 52.97052422 5.13421829 52.97052422 5.12939453 54.4519043 C5.12859894 55.3080986 5.12780334 56.16429291 5.12698364 57.0464325 C5 59 5 59 4 60 C-4.0737258 61.41065098 -12.39912834 61.18332009 -20.5625 61.1875 C-22.45645508 61.20586914 -22.45645508 61.20586914 -24.38867188 61.22460938 C-34.47891814 61.24041655 -44.09476789 60.95945942 -52 54 C-56.44412709 48.71712216 -56.61052899 42.67181311 -56.38671875 35.99609375 C-55.72038075 30.83365689 -53.36208255 28.36208255 -49.8125 24.8125 C-41.58774783 19.51210415 -32.11626004 18.82386882 -22.5625 18.9375 C-21.46518555 18.94426758 -21.46518555 18.94426758 -20.34570312 18.95117188 C-18.56376581 18.96281852 -16.78187137 18.98074809 -15 19 C-15.66 16.03 -16.32 13.06 -17 10 C-25.59904377 7.07266595 -34.10452299 7.98573289 -43.0625 8.5 C-43.92810547 8.54769531 -44.79371094 8.59539063 -45.68554688 8.64453125 C-47.79048698 8.76082628 -49.89526237 8.88009633 -52 9 C-52 4.71 -52 0.42 -52 -4 C-37.59797193 -9.76081123 -12.29845396 -10.49868021 0 0 Z M-35.5625 35.6875 C-36.19098586 39.00949667 -35.72910724 41.71901741 -35 45 C-32.2329486 47.7670514 -30.16077545 47.94271935 -26.30859375 48.1328125 C-24.88740234 48.12894531 -24.88740234 48.12894531 -23.4375 48.125 C-22.48746094 48.12757812 -21.53742188 48.13015625 -20.55859375 48.1328125 C-17.8787562 48.10770994 -17.8787562 48.10770994 -15 47 C-15 42.38 -15 37.76 -15 33 C-20.85194208 31.04935264 -31.02992051 30.79231416 -35.5625 35.6875 Z " fill="#232A53" transform="translate(401,47)"/>
<path d="M0 0 C6.75411829 4.79363086 10.96932911 11.99618226 12.875 20 C14.04977856 30.57300701 13.55922013 40.22018069 7.26171875 49.21484375 C0.27689566 57.43015381 -7.48288934 61.77006214 -18.36328125 62.67578125 C-30.14997665 62.71312031 -38.85814384 61.47116434 -47.75 53.375 C-54.80115641 46.32384359 -57.14089716 38.67974213 -57.25 28.9375 C-57.11773462 19.02843784 -54.93253051 10.5260788 -47.94921875 3.1640625 C-34.23181049 -7.99503694 -15.04699569 -8.9982034 0 0 Z M-31.75 11.375 C-37.28550842 18.07587862 -37.18407743 25.03614412 -36.75 33.375 C-36.21874964 38.30803908 -35.48234777 41.4736489 -32.3125 45.375 C-27.56716274 49.07867786 -22.54719407 49.00709281 -16.75 48.375 C-12.13621494 46.27782497 -10.24509725 44.11508621 -8.35424805 39.44604492 C-7.23328384 35.60396841 -7.31881311 31.78616174 -7.375 27.8125 C-7.36339844 26.98814453 -7.35179687 26.16378906 -7.33984375 25.31445312 C-7.36399484 20.27895044 -7.88444303 16.68630178 -10.75 12.375 C-14.25941799 8.9891019 -17.49510268 8.64310409 -22.21484375 8.31640625 C-26.22951015 8.40919515 -28.31020521 9.24232723 -31.75 11.375 Z " fill="#222951" transform="translate(577.75,45.625)"/>
<path d="M0 0 C6.29076696 5.28996312 10.58897499 12.86327489 11.5 21.0625 C12.22101921 30.25889598 9.68471988 38.16413597 3.75 45.3125 C0.60337028 47.75428466 -2.64899376 49.62327996 -6.25 51.3125 C-7.03890625 51.68632812 -7.8278125 52.06015625 -8.640625 52.4453125 C-16.49697166 55.05625406 -25.66072916 54.05255448 -33.0703125 50.56640625 C-40.81775696 46.10954304 -45.43676251 40.21847356 -48.0703125 31.640625 C-49.90371822 23.42511076 -49.27049549 16.26685631 -44.875 9 C-44.01243167 7.76207772 -43.13857069 6.5318924 -42.25 5.3125 C-41.4146875 3.9821875 -41.4146875 3.9821875 -40.5625 2.625 C-28.79243361 -9.14506639 -13.43742 -6.97712192 0 0 Z " fill="#232A53" transform="translate(130.25,83.6875)"/>
<path d="M0 0 C0 4.29 0 8.58 0 13 C-1.55589844 13.03738281 -3.11179687 13.07476562 -4.71484375 13.11328125 C-6.78908499 13.1789812 -8.8633027 13.24542712 -10.9375 13.3125 C-11.95908203 13.33505859 -12.98066406 13.35761719 -14.03320312 13.38085938 C-20.15396832 13.59596614 -26.57870516 13.8436421 -32 17 C-35.8910323 23.05220526 -35.84783304 31.0666098 -35 38 C-33.71731744 42.3031931 -32.08526126 45.13735643 -28.5625 47.9375 C-24.36431775 49.67820971 -20.43794445 50.12538616 -15.91796875 50.09765625 C-14.98662109 50.09443359 -14.05527344 50.09121094 -13.09570312 50.08789062 C-12.13599609 50.07951172 -11.17628906 50.07113281 -10.1875 50.0625 C-9.20845703 50.05798828 -8.22941406 50.05347656 -7.22070312 50.04882812 C-4.81373889 50.03708684 -2.40690143 50.02066419 0 50 C1.32229189 52.64458379 1.09677194 54.67761301 1.0625 57.625 C1.05347656 58.62789062 1.04445313 59.63078125 1.03515625 60.6640625 C1.02355469 61.43492188 1.01195312 62.20578125 1 63 C-7.48881092 67.89739091 -20.60320201 66.96772072 -30.046875 65.5390625 C-38.71005096 63.19393525 -46.80602581 58.68100487 -51.81640625 51.1015625 C-57.09246041 41.73351914 -57.65440126 30.3560101 -55.30859375 19.92578125 C-52.12347674 11.22334858 -46.33502375 4.98504638 -38 1 C-26.50874986 -3.80894333 -11.83190848 -3.50575066 0 0 Z " fill="#222952" transform="translate(470,42)"/>
<path d="M0 0 C1.48831242 0.00667405 2.97660807 0.01863442 4.46484375 0.03515625 C5.22345703 0.03966797 5.98207031 0.04417969 6.76367188 0.04882812 C8.64326246 0.06064945 10.52281274 0.07858547 12.40234375 0.09765625 C13.06234375 1.41765625 13.72234375 2.73765625 14.40234375 4.09765625 C15.0571875 3.80890625 15.71203125 3.52015625 16.38671875 3.22265625 C23.49624355 0.33064616 29.73406908 -0.68455906 37.40234375 0.09765625 C38.40234375 1.09765625 38.40234375 1.09765625 38.5 4.4765625 C38.49332744 5.87112702 38.48136907 7.26567368 38.46484375 8.66015625 C38.46033203 9.37107422 38.45582031 10.08199219 38.45117188 10.81445312 C38.43935239 12.57555638 38.42141638 14.33661661 38.40234375 16.09765625 C36.66597656 16.29681641 36.66597656 16.29681641 34.89453125 16.5 C33.35545967 16.67830707 31.81639768 16.85669687 30.27734375 17.03515625 C29.51679687 17.12216797 28.75625 17.20917969 27.97265625 17.29882812 C27.225 17.38583984 26.47734375 17.47285156 25.70703125 17.5625 C25.02624512 17.64105225 24.34545898 17.71960449 23.64404297 17.80053711 C20.88710417 18.1659471 18.14555402 18.64045454 15.40234375 19.09765625 C15.40234375 34.60765625 15.40234375 50.11765625 15.40234375 66.09765625 C8.80234375 66.09765625 2.20234375 66.09765625 -4.59765625 66.09765625 C-4.62021006 57.63997894 -4.63857295 49.18232484 -4.64946842 40.72462559 C-4.65469656 36.79776967 -4.66179294 32.87093531 -4.6730957 28.9440918 C-4.68392705 25.15751368 -4.68993361 21.37095635 -4.69253349 17.58436394 C-4.6943873 16.13661306 -4.69800706 14.68886337 -4.70338631 13.24112129 C-4.71059992 11.2200849 -4.71106433 9.19902777 -4.71118164 7.17797852 C-4.71340225 6.02548111 -4.71562286 4.8729837 -4.71791077 3.68556213 C-4.53085234 -0.33997974 -4.18564985 0.11361699 0 0 Z " fill="#222952" transform="translate(483.59765625,40.90234375)"/>
<path d="M0 0 C6.75411829 4.79363086 10.96932911 11.99618226 12.875 20 C14.04977856 30.57300701 13.55922013 40.22018069 7.26171875 49.21484375 C0.86299269 56.74080653 -5.26374209 60.03320411 -14.75 62.375 C-18.5390625 62.640625 -18.5390625 62.640625 -22.375 62.625 C-23.64601563 62.63015625 -24.91703125 62.6353125 -26.2265625 62.640625 C-29.53594474 62.3911372 -31.78550613 61.80613497 -34.75 60.375 C-30.74870501 59.00972874 -26.7211221 59.38788583 -22.5625 59.5 C-15.99232967 59.60625236 -10.85486172 59.03893966 -4.75 56.375 C-4.75 55.385 -4.75 54.395 -4.75 53.375 C-6.07 53.375 -7.39 53.375 -8.75 53.375 C-9.08 52.385 -9.41 51.395 -9.75 50.375 C-11.89663657 49.48673659 -13.23581742 49.24645435 -15.5 49.8125 C-21.716338 51.3665845 -26.53065601 50.63729992 -32.05078125 47.58984375 C-34.44072057 45.88117449 -35.61868299 44.06187791 -36.75 41.375 C-36.75 40.715 -36.75 40.055 -36.75 39.375 C-37.41 39.045 -38.07 38.715 -38.75 38.375 C-38.77726927 36.02075325 -38.79696719 33.66683038 -38.8125 31.3125 C-38.82410156 30.00152344 -38.83570313 28.69054687 -38.84765625 27.33984375 C-38.67048271 20.14659817 -37.87969566 15.22540218 -33.75 9.375 C-27.89411843 6.26568235 -21.18338678 6.61990766 -14.75 7.375 C-11.91420864 8.72044846 -10.85238729 9.93168504 -8.75 12.375 C-7.821875 13.2721875 -7.821875 13.2721875 -6.875 14.1875 C-6.50375 14.579375 -6.1325 14.97125 -5.75 15.375 C-5.42 14.055 -5.09 12.735 -4.75 11.375 C-3.76 11.375 -2.77 11.375 -1.75 11.375 C-1.75 10.385 -1.75 9.395 -1.75 8.375 C-0.1 8.045 1.55 7.715 3.25 7.375 C1.52773504 4.12650023 1.52773504 4.12650023 -1.75 3.375 C-2.430625 2.6634375 -2.430625 2.6634375 -3.125 1.9375 C-5.97428724 -0.80219927 -8.85496582 -1.625 -12.75 -1.625 C-12.75 -0.635 -12.75 0.355 -12.75 1.375 C-13.41 1.375 -14.07 1.375 -14.75 1.375 C-15.245 0.385 -15.245 0.385 -15.75 -0.625 C-15.75 0.365 -15.75 1.355 -15.75 2.375 C-14.76 2.705 -13.77 3.035 -12.75 3.375 C-14.73 4.365 -16.71 5.355 -18.75 6.375 C-18.75 5.715 -18.75 5.055 -18.75 4.375 C-22.85223585 3.35959888 -22.85223585 3.35959888 -26.75 4.375 C-27.100625 3.92125 -27.45125 3.4675 -27.8125 3 C-30.75752836 0.52997621 -32.93289742 -0.12439638 -36.75 -0.625 C-43.78311655 2.16422459 -49.19306737 7.82275567 -52.75 14.375 C-53.75 11.375 -53.75 11.375 -52.8515625 9.54296875 C-40.28912303 -7.30665244 -17.95312874 -10.73609027 0 0 Z M-31.75 11.375 C-37.28550842 18.07587862 -37.18407743 25.03614412 -36.75 33.375 C-36.21874964 38.30803908 -35.48234777 41.4736489 -32.3125 45.375 C-27.56716274 49.07867786 -22.54719407 49.00709281 -16.75 48.375 C-12.13621494 46.27782497 -10.24509725 44.11508621 -8.35424805 39.44604492 C-7.23328384 35.60396841 -7.31881311 31.78616174 -7.375 27.8125 C-7.36339844 26.98814453 -7.35179687 26.16378906 -7.33984375 25.31445312 C-7.36399484 20.27895044 -7.88444303 16.68630178 -10.75 12.375 C-14.25941799 8.9891019 -17.49510268 8.64310409 -22.21484375 8.31640625 C-26.22951015 8.40919515 -28.31020521 9.24232723 -31.75 11.375 Z " fill="#21284F" transform="translate(577.75,45.625)"/>
<path d="M0 0 C6.75411829 4.79363086 10.96932911 11.99618226 12.875 20 C14.04537585 30.53338263 13.29528952 40.30706572 7.25 49.375 C6.59 49.375 5.93 49.375 5.25 49.375 C5.518125 48.735625 5.78625 48.09625 6.0625 47.4375 C6.6503125 45.9215625 6.6503125 45.9215625 7.25 44.375 C7.51425781 43.77816406 7.77851562 43.18132812 8.05078125 42.56640625 C11.51916052 33.87080134 11.83279446 23.61304849 8.5625 14.8125 C6.64745248 10.73793081 4.43263195 7.55763195 1.25 4.375 C0.26 4.045 -0.73 3.715 -1.75 3.375 C-2.430625 2.6634375 -2.430625 2.6634375 -3.125 1.9375 C-5.97428724 -0.80219927 -8.85496582 -1.625 -12.75 -1.625 C-12.75 -0.635 -12.75 0.355 -12.75 1.375 C-13.41 1.375 -14.07 1.375 -14.75 1.375 C-15.245 0.385 -15.245 0.385 -15.75 -0.625 C-15.75 0.365 -15.75 1.355 -15.75 2.375 C-14.76 2.705 -13.77 3.035 -12.75 3.375 C-14.73 4.365 -16.71 5.355 -18.75 6.375 C-18.75 5.715 -18.75 5.055 -18.75 4.375 C-22.85223585 3.35959888 -22.85223585 3.35959888 -26.75 4.375 C-27.100625 3.92125 -27.45125 3.4675 -27.8125 3 C-30.75752836 0.52997621 -32.93289742 -0.12439638 -36.75 -0.625 C-43.78311655 2.16422459 -49.19306737 7.82275567 -52.75 14.375 C-53.75 11.375 -53.75 11.375 -52.8515625 9.54296875 C-40.28912303 -7.30665244 -17.95312874 -10.73609027 0 0 Z " fill="#1F264B" transform="translate(577.75,45.625)"/>
<path d="M0 0 C11.11978714 1.27836969 23.20618309 14.43329324 30.0625 22.6875 C43.50125053 40.18726461 52.46146398 60.29028198 52.43359375 82.55859375 C52.29050781 83.36425781 52.14742187 84.16992188 52 85 C47.43992758 88.04004828 42.9273199 87.36843753 37.5625 87.375 C36.51255859 87.39949219 35.46261719 87.42398438 34.38085938 87.44921875 C33.36958984 87.45308594 32.35832031 87.45695312 31.31640625 87.4609375 C29.93110718 87.47326416 29.93110718 87.47326416 28.51782227 87.48583984 C25.23145401 86.8517011 24.05883731 85.5858715 22 83 C21.27734375 80.1171875 21.27734375 80.1171875 20.9375 76.875 C20.19975945 70.99301456 18.89846989 65.60681442 17 60 C17.66 60 18.32 60 19 60 C19.64836042 61.74906531 20.29358784 63.49929219 20.9375 65.25 C21.29714844 66.22453125 21.65679687 67.1990625 22.02734375 68.203125 C23.4177931 72.20136489 24.12495875 75.50280498 24.0625 79.75 C24.05347656 80.54921875 24.04445312 81.3484375 24.03515625 82.171875 C24.02355469 82.77515625 24.01195312 83.3784375 24 84 C27.97915159 84.02886984 31.95827653 84.04675406 35.9375 84.0625 C37.64196289 84.07506836 37.64196289 84.07506836 39.38085938 84.08789062 C40.46044922 84.09111328 41.54003906 84.09433594 42.65234375 84.09765625 C43.65257568 84.10289307 44.65280762 84.10812988 45.68334961 84.11352539 C47.96207228 84.26181095 47.96207228 84.26181095 49 83 C51.76210853 63.28064293 41.68402853 42.77921068 30.3125 27.3125 C27.50415605 23.60055726 24.65514382 20.86132004 21 18 C20.00719942 16.86251994 19.04475567 15.69731508 18.125 14.5 C15.16080781 10.91054852 12.14529851 9.07264926 8 7 C8 6.34 8 5.68 8 5 C6.8553125 4.5978125 6.8553125 4.5978125 5.6875 4.1875 C3.12619116 3.05575888 1.80307062 2.08776599 0 0 Z " fill="#151834" transform="translate(160,21)"/>
<path d="M0 0 C1.48831242 0.00667405 2.97660807 0.01863442 4.46484375 0.03515625 C5.22345703 0.03966797 5.98207031 0.04417969 6.76367188 0.04882812 C8.64326246 0.06064945 10.52281274 0.07858547 12.40234375 0.09765625 C13.06234375 1.41765625 13.72234375 2.73765625 14.40234375 4.09765625 C15.13839844 3.79730469 15.87445313 3.49695312 16.6328125 3.1875 C17.60863281 2.80722656 18.58445312 2.42695312 19.58984375 2.03515625 C20.55277344 1.65230469 21.51570313 1.26945312 22.5078125 0.875 C25.6116905 0.04143492 27.35153492 0.21085807 30.40234375 1.09765625 C30.40234375 1.42765625 30.40234375 1.75765625 30.40234375 2.09765625 C24.09474118 3.74446874 17.88707368 5.36075512 11.40234375 6.09765625 C11.40234375 4.77765625 11.40234375 3.45765625 11.40234375 2.09765625 C6.45234375 2.09765625 1.50234375 2.09765625 -3.59765625 2.09765625 C-3.59765625 22.55765625 -3.59765625 43.01765625 -3.59765625 64.09765625 C2.01234375 64.09765625 7.62234375 64.09765625 13.40234375 64.09765625 C13.40234375 49.90765625 13.40234375 35.71765625 13.40234375 21.09765625 C14.06234375 21.42765625 14.72234375 21.75765625 15.40234375 22.09765625 C15.40234375 36.61765625 15.40234375 51.13765625 15.40234375 66.09765625 C8.80234375 66.09765625 2.20234375 66.09765625 -4.59765625 66.09765625 C-4.62021006 57.63997894 -4.63857295 49.18232484 -4.64946842 40.72462559 C-4.65469656 36.79776967 -4.66179294 32.87093531 -4.6730957 28.9440918 C-4.68392705 25.15751368 -4.68993361 21.37095635 -4.69253349 17.58436394 C-4.6943873 16.13661306 -4.69800706 14.68886337 -4.70338631 13.24112129 C-4.71059992 11.2200849 -4.71106433 9.19902777 -4.71118164 7.17797852 C-4.71340225 6.02548111 -4.71562286 4.8729837 -4.71791077 3.68556213 C-4.53085234 -0.33997974 -4.18564985 0.11361699 0 0 Z " fill="#141730" transform="translate(483.59765625,40.90234375)"/>
<path d="M0 0 C0.66 0 1.32 0 2 0 C2.02464513 6.1055471 2.04283371 12.21106551 2.05493164 18.31665039 C2.05997288 20.39543156 2.06680574 22.47420916 2.07543945 24.55297852 C2.08751422 27.53402586 2.09323024 30.51502649 2.09765625 33.49609375 C2.10281754 34.43150497 2.10797882 35.3669162 2.11329651 36.33067322 C2.11337204 37.19149002 2.11344757 38.05230682 2.11352539 38.93920898 C2.115746 39.70087875 2.11796661 40.46254852 2.12025452 41.24729919 C2 43 2 43 1 44 C-7.0737258 45.41065098 -15.39912834 45.18332009 -23.5625 45.1875 C-24.82513672 45.19974609 -26.08777344 45.21199219 -27.38867188 45.22460938 C-37.47891814 45.24041655 -47.09476789 44.95945942 -55 38 C-59.44412709 32.71712216 -59.61052899 26.67181311 -59.38671875 19.99609375 C-58.69663018 14.64964999 -56.20692708 12.14805259 -52.4375 8.5625 C-51.633125 8.046875 -50.82875 7.53125 -50 7 C-49.01 7.33 -48.02 7.66 -47 8 C-47.83144531 8.54527344 -47.83144531 8.54527344 -48.6796875 9.1015625 C-53.27145809 12.28488257 -53.27145809 12.28488257 -56.5 16.75 C-57.18259372 21.1868592 -57.15931752 25.5214075 -57 30 C-56.34 30.33 -55.68 30.66 -55 31 C-54.855625 31.61875 -54.71125 32.2375 -54.5625 32.875 C-53.73513095 36.00061642 -51.90685599 37.3950896 -49.26220703 39.15917969 C-40.05268926 43.5390329 -29.81516722 42.42662377 -19.875 42.25 C-13.31625 42.1675 -6.7575 42.085 0 42 C0 28.14 0 14.28 0 0 Z " fill="#1A1E3D" transform="translate(404,63)"/>
<path d="M0 0 C0.33 0 0.66 0 1 0 C1.61842756 18.4383031 -0.25649714 36.66848942 -2 55 C2.29 55 6.58 55 11 55 C11.04898438 53.46214844 11.09796875 51.92429688 11.1484375 50.33984375 C11.64859568 35.83987699 12.58752255 21.43934368 14 7 C14.33 7 14.66 7 15 7 C15.22423428 19.32042779 14.97333024 31.51957402 14.0625 43.8125 C13.97564941 45.00464111 13.88879883 46.19678223 13.79931641 47.42504883 C13.13249887 55.86750113 13.13249887 55.86750113 12 57 C9.48863896 57.09975032 7.01096585 57.13882183 4.5 57.125 C3.79746094 57.12886719 3.09492188 57.13273437 2.37109375 57.13671875 C-2.87338622 57.12661378 -2.87338622 57.12661378 -4 56 C-3.96986836 53.64704546 -3.87443356 51.33125852 -3.73046875 48.984375 C-3.69003952 48.26476089 -3.64961029 47.54514679 -3.60795593 46.8037262 C-3.47366078 44.45210215 -3.33099603 42.10107926 -3.1875 39.75 C-3.11755829 38.56148941 -3.11755829 38.56148941 -3.04620361 37.34896851 C-2.31174779 24.86940067 -1.35693464 12.42894388 0 0 Z " fill="#121634" transform="translate(240,50)"/>
<path d="M0 0 C-2.61941217 1.74627478 -4.03824877 2.38722388 -7 3 C-7 3.66 -7 4.32 -7 5 C-7.7425 5.433125 -8.485 5.86625 -9.25 6.3125 C-12.31448542 8.19297969 -13.99614148 10.03132072 -16 13 C-16 13.99 -16 14.98 -16 16 C-16.495 16.391875 -16.99 16.78375 -17.5 17.1875 C-19.96451197 20.16545197 -19.18529627 23.23230918 -19 27 C-19.33 27 -19.66 27 -20 27 C-20 30.3 -20 33.6 -20 37 C-19.34 37 -18.68 37 -18 37 C-18 38.32 -18 39.64 -18 41 C-17.34 41.33 -16.68 41.66 -16 42 C-15.566875 42.78375 -15.13375 43.5675 -14.6875 44.375 C-12.78294291 47.33764436 -11.03846746 48.32084693 -8 50 C-7.67 50.66 -7.34 51.32 -7 52 C-2.19369968 54.08519491 2.22564686 54.38468138 7.375 54.375 C8.50446045 54.37584595 8.50446045 54.37584595 9.65673828 54.37670898 C15.41073549 54.26242838 19.13764444 53.20915467 24 50 C24.99 49.67 25.98 49.34 27 49 C26 52 26 52 23.98828125 53.38671875 C15.48315404 57.52132803 7.39852941 58.56040431 -1.8671875 56.30078125 C-10.20535273 53.29752113 -15.98251171 48.39751001 -19.9921875 40.484375 C-23.17658407 32.63446718 -23.8449 25.04051548 -21 17 C-19.56743345 14.13486689 -17.89267584 11.57934786 -16 9 C-15.38125 8.0925 -14.7625 7.185 -14.125 6.25 C-10.24297146 2.13961684 -5.8752518 -0.71215173 0 0 Z " fill="#161A34" transform="translate(104,80)"/>
<path d="M0 0 C4.35915856 3.19231309 5.99185453 8.08658084 6.859375 13.1953125 C7.07943456 17.54271144 7.04082325 21.84727473 6.859375 26.1953125 C6.529375 26.1953125 6.199375 26.1953125 5.859375 26.1953125 C5.74980469 25.10992187 5.64023437 24.02453125 5.52734375 22.90625 C5.36778892 21.46087098 5.20759889 20.01556199 5.046875 18.5703125 C4.97662109 17.85746094 4.90636719 17.14460938 4.83398438 16.41015625 C4.30489334 11.7964824 3.3600696 8.21212871 0.859375 4.1953125 C-4.07531755 1.07336415 -8.0833402 0.74070039 -13.8359375 1.5625 C-17.45454609 2.55608405 -19.02154845 4.14913995 -21.140625 7.1953125 C-24.55755734 15.3308657 -24.21681559 25.92912439 -21.140625 34.1953125 C-18.84844834 37.1529598 -17.69270665 38.01128528 -14.140625 39.1953125 C-9.23362317 39.71050546 -5.26265024 39.68492351 -0.703125 37.6953125 C2.66880788 34.40562189 3.51336482 31.6820131 4.859375 27.1953125 C5.84330119 30.3010387 5.93605847 31.00158583 4.671875 34.1953125 C2.63653635 37.56414888 0.81471618 40.35730914 -2.890625 41.9453125 C-10.04332526 42.74005697 -15.15851583 42.47217675 -21.140625 38.1953125 C-24.140625 34.2578125 -24.140625 34.2578125 -24.140625 31.1953125 C-24.800625 30.8653125 -25.460625 30.5353125 -26.140625 30.1953125 C-26.16789427 27.84106575 -26.18759219 25.48714288 -26.203125 23.1328125 C-26.22052734 21.16634766 -26.22052734 21.16634766 -26.23828125 19.16015625 C-26.06110771 11.96691067 -25.27032066 7.04571468 -21.140625 1.1953125 C-15.12697354 -1.99777677 -6.36966613 -2.39443654 0 0 Z " fill="#141834" transform="translate(565.140625,53.8046875)"/>
<path d="M0 0 C1.48306641 -0.00193359 1.48306641 -0.00193359 2.99609375 -0.00390625 C4.53716797 0.00189453 4.53716797 0.00189453 6.109375 0.0078125 C7.12128906 0.00394531 8.13320312 0.00007813 9.17578125 -0.00390625 C18.09527767 0.00766249 25.47699773 0.4853402 33.546875 4.5078125 C34.18431641 4.81203125 34.82175781 5.11625 35.47851562 5.4296875 C50.82058517 12.8394796 61.28078456 23.24518969 68.9609375 38.50390625 C69.94326487 41.37828156 69.71036245 42.32395621 68.859375 45.1328125 C68.06273437 43.48732422 68.06273437 43.48732422 67.25 41.80859375 C66.53678339 40.35400724 65.82322352 38.899589 65.109375 37.4453125 C64.76132813 36.72408203 64.41328125 36.00285156 64.0546875 35.25976562 C61.3082618 29.69062463 58.29217502 25.09204023 53.421875 21.1328125 C51.21273327 19.30827719 49.32416125 17.55745772 47.359375 15.4453125 C44.39287198 12.70129721 41.60304262 11.61737035 37.859375 10.1328125 C36.68234355 9.46321238 35.51550111 8.7753939 34.359375 8.0703125 C29.01486549 4.94969286 24.01123187 3.98633972 17.859375 4.1328125 C17.529375 3.8028125 17.199375 3.4728125 16.859375 3.1328125 C15.10136266 3.06988546 13.34087837 3.07346884 11.58203125 3.10546875 C9.97618164 3.12383789 9.97618164 3.12383789 8.33789062 3.14257812 C6.06438845 3.17767507 3.79094378 3.21672428 1.51757812 3.25976562 C-0.09020508 3.27620117 -0.09020508 3.27620117 -1.73046875 3.29296875 C-2.71909912 3.30980713 -3.70772949 3.32664551 -4.72631836 3.34399414 C-7.140625 3.1328125 -7.140625 3.1328125 -9.140625 1.1328125 C-6.02849931 0.22126201 -3.2378255 0.00409555 0 0 Z " fill="#1B1E39" transform="translate(103.140625,42.8671875)"/>
<path d="M0 0 C0 0.66 0 1.32 0 2 C-1.32 2 -2.64 2 -4 2 C-4.66 2.66 -5.32 3.32 -6 4 C-7.06734375 2.77410156 -7.06734375 2.77410156 -8.15625 1.5234375 C-13.1195111 -2.60387528 -19.3933851 -1.5635962 -25.5 -1.375 C-27.31564453 -1.35373047 -27.31564453 -1.35373047 -29.16796875 -1.33203125 C-37.13973478 -1.21855663 -37.13973478 -1.21855663 -45 0 C-46.14352916 2.28705831 -46.10334439 3.59264762 -46.0625 6.125 C-46.041875 7.40375 -46.02125 8.6825 -46 10 C-44.329375 9.75443359 -44.329375 9.75443359 -42.625 9.50390625 C-37.74020485 8.89330686 -32.91604855 8.88841503 -28 8.9375 C-27.12988281 8.94201172 -26.25976562 8.94652344 -25.36328125 8.95117188 C-23.24215707 8.9628264 -21.1210689 8.98075643 -19 9 C-19 9.33 -19 9.66 -19 10 C-22.33270874 10.33977725 -25.66624786 10.67063063 -29 11 C-30.40185547 11.14308594 -30.40185547 11.14308594 -31.83203125 11.2890625 C-37.25318323 11.81980465 -42.55322171 12.1027694 -48 12 C-48 7.71 -48 3.42 -48 -1 C-34.39874846 -6.44050062 -13.18358945 -6.59179473 0 0 Z " fill="#151934" transform="translate(397,44)"/>
<path d="M0 0 C10.17938057 -0.69668764 19.02910255 1.29719987 27 8 C33.29810323 16.05430509 36.61550625 23.95738496 35.82421875 34.296875 C34.70705246 40.66133748 31.53546558 45.67456599 28 51 C27.34 50.67 26.68 50.34 26 50 C27.1300752 47.7398496 28.26833177 45.54920263 29.5625 43.375 C31.4603363 38.91921044 31.66349791 34.78978501 32 30 C32.17925332 28.29078168 32.3662223 26.58234709 32.5625 24.875 C32.706875 23.59625 32.85125 22.3175 33 21 C32.34 20.67 31.68 20.34 31 20 C31 19.34 31 18.68 31 18 C30.34 17.34 29.68 16.68 29 16 C28.5875 15.21625 28.175 14.4325 27.75 13.625 C25.60700207 10.4105031 23.27533495 9.00530711 20 7 C19.44699219 6.49082031 18.89398438 5.98164062 18.32421875 5.45703125 C15.00013757 3.37319549 11.57086523 3.18041017 7.75 2.8125 C6.63238281 2.6897168 6.63238281 2.6897168 5.4921875 2.56445312 C3.66264644 2.36508006 1.83144849 2.18101526 0 2 C0 1.34 0 0.68 0 0 Z " fill="#1A1F3A" transform="translate(106,78)"/>
<path d="M0 0 C-2.38548208 1.90838566 -4.64639523 3.3351679 -7.375 4.75 C-16.97956171 10.20012603 -20.2785408 20.24826537 -23.38671875 30.25 C-24 32 -24 32 -25 33 C-29.11870915 33.25342626 -33.24941933 33.1852282 -37.375 33.1875 C-38.53773437 33.19974609 -39.70046875 33.21199219 -40.8984375 33.22460938 C-42.0121875 33.22654297 -43.1259375 33.22847656 -44.2734375 33.23046875 C-45.81136963 33.23663208 -45.81136963 33.23663208 -47.38037109 33.24291992 C-50 33 -50 33 -53 31 C-52.88652381 29.02013918 -52.7589065 27.04108402 -52.625 25.0625 C-52.55539063 23.96035156 -52.48578125 22.85820313 -52.4140625 21.72265625 C-52.27742188 20.82417969 -52.14078125 19.92570312 -52 19 C-51.34 18.67 -50.68 18.34 -50 18 C-50.33 22.29 -50.66 26.58 -51 31 C-42.42 30.67 -33.84 30.34 -25 30 C-24.34 26.37 -23.68 22.74 -23 19 C-19.49304921 12.18367311 -8.96251949 -2.9875065 0 0 Z " fill="#181A35" transform="translate(99,75)"/>
<path d="M0 0 C1.4850795 1.87588989 2.8497443 3.7129261 3.9609375 5.8359375 C7.83968689 13.01575019 13.58704209 16.37272177 21.125 19.15234375 C26.17954603 20.25802569 30.96902954 20.252722 36.125 20.1875 C37.10082031 20.18685547 38.07664062 20.18621094 39.08203125 20.18554688 C43.54503504 20.15814781 47.63016183 19.97937911 52 19 C52.33 15.7 52.66 12.4 53 9 C52.01 9 51.02 9 50 9 C50 8.34 50 7.68 50 7 C51.32 7 52.64 7 54 7 C55.32229189 9.64458379 55.09677194 11.67761301 55.0625 14.625 C55.05347656 15.62789062 55.04445313 16.63078125 55.03515625 17.6640625 C55.02355469 18.43492188 55.01195312 19.20578125 55 20 C46.51118908 24.89739091 33.39679799 23.96772072 23.953125 22.5390625 C15.14187438 20.15385135 7.2398998 15.56971238 2.05078125 7.96875 C0.65493506 5.35348427 0.1474085 2.94817006 0 0 Z " fill="#121530" transform="translate(416,85)"/>
<path d="M0 0 C0.66 0.33 1.32 0.66 2 1 C2 15.52 2 30.04 2 45 C-3.94 45 -9.88 45 -16 45 C-16 44.34 -16 43.68 -16 43 C-10.72 43 -5.44 43 0 43 C0 28.81 0 14.62 0 0 Z " fill="#181C3A" transform="translate(497,62)"/>
<path d="M0 0 C0.99 0.33 1.98 0.66 3 1 C2.16855469 1.54527344 2.16855469 1.54527344 1.3203125 2.1015625 C-3.27145809 5.28488257 -3.27145809 5.28488257 -6.5 9.75 C-7.18259372 14.1868592 -7.15931752 18.5214075 -7 23 C-6.34 23.33 -5.68 23.66 -5 24 C-4.855625 24.61875 -4.71125 25.2375 -4.5625 25.875 C-3.8746182 28.47366457 -3.02419835 29.25588298 -1 31 C6.19937323 34.97337741 13.54283132 35.778622 21.625 36.25 C22.72457031 36.32734375 23.82414062 36.4046875 24.95703125 36.484375 C27.63739708 36.67083523 30.3178086 36.84241245 33 37 C33 37.33 33 37.66 33 38 C29.68757688 38.0588996 26.37529149 38.09389398 23.0625 38.125 C22.13630859 38.14175781 21.21011719 38.15851563 20.25585938 38.17578125 C10.98876118 38.24081352 2.20119441 37.33965197 -5 31 C-9.44412709 25.71712216 -9.61052899 19.67181311 -9.38671875 12.99609375 C-8.69663018 7.64964999 -6.20692708 5.14805259 -2.4375 1.5625 C-1.633125 1.046875 -0.82875 0.53125 0 0 Z " fill="#131631" transform="translate(354,70)"/>
<path d="M0 0 C0.66 0.33 1.32 0.66 2 1 C2.99 1 3.98 1 5 1 C6.66666667 1 8.33333333 1 10 1 C10 1.33 10 1.66 10 2 C10.84304688 2.06058594 11.68609375 2.12117188 12.5546875 2.18359375 C14.19824219 2.30927734 14.19824219 2.30927734 15.875 2.4375 C17.51082031 2.55931641 17.51082031 2.55931641 19.1796875 2.68359375 C22 3 22 3 24 4 C24.33 3.34 24.66 2.68 25 2 C25.495 3.485 25.495 3.485 26 5 C25.35039307 5.01458252 24.70078613 5.02916504 24.03149414 5.04418945 C21.0412806 5.11941662 18.05209403 5.21582612 15.0625 5.3125 C14.04091797 5.33505859 13.01933594 5.35761719 11.96679688 5.38085938 C5.8435794 5.59605232 -0.57374867 5.84870854 -6 9 C-10.02459566 15.32948762 -9.67465953 23.74154197 -10 31 C-13.2884362 25.77419053 -12.00023616 19.82021478 -11 14 C-8.74883201 9.41726516 -5.94688014 7.11595801 -2 4 C-0.68834743 1.88339573 -0.68834743 1.88339573 0 0 Z " fill="#181E3F" transform="translate(444,50)"/>
<path d="M0 0 C0.054348 2.0622048 0.09294961 4.12482816 0.125 6.1875 C0.14820313 7.33605469 0.17140625 8.48460938 0.1953125 9.66796875 C0.00484152 12.91740372 -0.60639873 15.08660521 -2 18 C-4.91691525 18.05401695 -7.83282724 18.09368066 -10.75 18.125 C-11.575 18.14175781 -12.4 18.15851563 -13.25 18.17578125 C-14.04921875 18.18222656 -14.8484375 18.18867187 -15.671875 18.1953125 C-16.4050293 18.20578613 -17.13818359 18.21625977 -17.89355469 18.22705078 C-20.33992539 17.96335992 -21.91604264 17.29409777 -24 16 C-25.60725635 12.78548731 -25.05748185 9.56387464 -25 6 C-25.66 6 -26.32 6 -27 6 C-25.28708281 2.57416562 -22.47206987 1.23499521 -19 0 C-5.66457198 -1.8786302 -5.66457198 -1.8786302 0 0 Z M-23.5625 4.6875 C-24.19098586 8.00949667 -23.72910724 10.71901741 -23 14 C-20.2329486 16.7670514 -18.16077545 16.94271935 -14.30859375 17.1328125 C-12.88740234 17.12894531 -12.88740234 17.12894531 -11.4375 17.125 C-10.48746094 17.12757812 -9.53742188 17.13015625 -8.55859375 17.1328125 C-5.8787562 17.10770994 -5.8787562 17.10770994 -3 16 C-3 11.38 -3 6.76 -3 2 C-8.85194208 0.04935264 -19.02992051 -0.20768584 -23.5625 4.6875 Z " fill="#101232" transform="translate(389,78)"/>
<path d="M0 0 C6.5733143 0.2797155 11.05948484 2.67929492 16 7 C22.98811407 15.46007852 25.36735687 24.11589677 25.29296875 34.9765625 C24.67244114 41.38040748 22.56605443 47.65091836 19 53 C18.34 53 17.68 53 17 53 C17.268125 52.360625 17.53625 51.72125 17.8125 51.0625 C18.204375 50.051875 18.59625 49.04125 19 48 C19.26425781 47.40316406 19.52851562 46.80632812 19.80078125 46.19140625 C23.26916052 37.49580134 23.58279446 27.23804849 20.3125 18.4375 C18.39745248 14.36293081 16.18263195 11.18263195 13 8 C12.01 7.67 11.02 7.34 10 7 C9.5875 6.54625 9.175 6.0925 8.75 5.625 C6.16038514 3.22035763 3.27684866 2.298374 0 1 C0 0.67 0 0.34 0 0 Z " fill="#141633" transform="translate(566,42)"/>
<path d="M0 0 C0 0.66 0 1.32 0 2 C-1.11375 1.835 -2.2275 1.67 -3.375 1.5 C-17.41198811 -0.03738441 -32.28937796 -0.92868694 -44 8 C-44.52851563 8.54785156 -45.05703125 9.09570312 -45.6015625 9.66015625 C-47 11 -47 11 -49 11 C-49.433125 12.4540625 -49.433125 12.4540625 -49.875 13.9375 C-51 17 -51 17 -53 18 C-52.67583499 12.65127739 -49.72117478 9.54242839 -46 6 C-33.62613851 -4.05038531 -14.75963401 -4.37322489 0 0 Z " fill="#151735" transform="translate(470,42)"/>
<path d="M0 0 C0.66 0.66 1.32 1.32 2 2 C1.154375 2.639375 0.30875 3.27875 -0.5625 3.9375 C-13.38380499 14.67722842 -19.34736596 30.17191916 -23 46 C-23.33 46 -23.66 46 -24 46 C-24.21859211 39.98871706 -23.49689006 34.81274098 -22 29 C-21.85046875 28.2884375 -21.7009375 27.576875 -21.546875 26.84375 C-21 25 -21 25 -19.1875 23.25 C-17.1210475 21.124506 -16.27840942 19.69697041 -15.0625 17.0625 C-13.24604942 13.25426576 -11.15031873 10.86392611 -8 8 C-6.55713625 6.56788384 -5.11993843 5.13004381 -3.6875 3.6875 C-1.84375 1.84375 -1.84375 1.84375 0 0 Z " fill="#141933" transform="translate(64,53)"/>
<path d="M0 0 C2.86724686 0.57344937 3.8614515 0.8614515 6 3 C6.66796875 5.09375 6.66796875 5.09375 7.1875 7.5 C7.45626953 8.69109375 7.45626953 8.69109375 7.73046875 9.90625 C8 12 8 12 7 14 C6.41508789 14.01981934 5.83017578 14.03963867 5.22753906 14.06005859 C2.56791975 14.15553481 -0.09093838 14.26512142 -2.75 14.375 C-3.67039062 14.4059375 -4.59078125 14.436875 -5.5390625 14.46875 C-6.42851562 14.50742188 -7.31796875 14.54609375 -8.234375 14.5859375 C-9.45979004 14.63306885 -9.45979004 14.63306885 -10.70996094 14.68115234 C-13.04220097 14.88125443 -13.04220097 14.88125443 -15.09472656 16.04931641 C-17.90285854 17.45050373 -20.02577511 16.6759602 -23 16 C-22.67 15.34 -22.34 14.68 -22 14 C-13.36449963 11.18520913 -3.9576111 11.79769511 5 12 C4.74337755 10.55989519 4.46909179 9.1229313 4.1875 7.6875 C4.03667969 6.88699219 3.88585937 6.08648437 3.73046875 5.26171875 C2.92427764 2.76554413 1.97947998 1.67577894 0 0 Z " fill="#1A1E39" transform="translate(381,54)"/>
<path d="M0 0 C6.82803519 4.86751023 15.38611254 12.37338729 17 21 C16.01 21.495 16.01 21.495 15 22 C14.649375 21.01 14.29875 20.02 13.9375 19 C10.60791233 11.31394248 4.49238164 5.5864695 -3 2 C-9.13918072 -0.18513212 -14.655926 -0.11841778 -21.14453125 0.125 C-24 0 -24 0 -27 -2 C-19.54230818 -5.72884591 -7.43918441 -2.46135978 0 0 Z " fill="#1C1F3A" transform="translate(129,74)"/>
<path d="M0 0 C8.75126138 1.86405792 16.6175736 7.96401011 23 14 C23 14.66 23 15.32 23 16 C23.66 16 24.32 16 25 16 C27.86984653 19.26548381 30.27399764 22.78671439 32.625 26.4375 C33.21539062 27.34371094 33.80578125 28.24992187 34.4140625 29.18359375 C36.0359988 32.06392889 37.05939986 34.83827973 38 38 C35.49265952 35.71993307 34.00067659 33.39889331 32.375 30.4375 C28.93696828 24.59965405 24.73754852 19.81881007 20 15 C19.36191406 14.34902344 18.72382813 13.69804688 18.06640625 13.02734375 C12.74595876 7.99448802 6.62669227 5.01514498 0 2 C0 1.34 0 0.68 0 0 Z " fill="#161B36" transform="translate(140,42)"/>
<path d="M0 0 C3.96930989 -0.02465881 7.93859034 -0.04284023 11.90795898 -0.05493164 C13.25920386 -0.05997057 14.61044326 -0.06680177 15.96166992 -0.07543945 C17.90020434 -0.08752419 19.838778 -0.09269828 21.77734375 -0.09765625 C23.52905884 -0.10551147 23.52905884 -0.10551147 25.31616211 -0.11352539 C28 0 28 0 29 1 C30.00629027 6.83648358 30.13517087 12.19801557 29 18 C28.67 18 28.34 18 28 18 C27.67 12.72 27.34 7.44 27 2 C18.42 2 9.84 2 1 2 C0.67 2.99 0.34 3.98 0 5 C0 3.35 0 1.7 0 0 Z " fill="#1C1F3B" transform="translate(303,20)"/>
<path d="M0 0 C1.9451 2.91765 2.45276317 4.62537285 3 8 C3.96824707 7.99214478 3.96824707 7.99214478 4.95605469 7.98413086 C7.88735985 7.96331343 10.81864943 7.95032466 13.75 7.9375 C14.76578125 7.92912109 15.7815625 7.92074219 16.828125 7.91210938 C17.8078125 7.90888672 18.7875 7.90566406 19.796875 7.90234375 C20.69760742 7.89710693 21.59833984 7.89187012 22.52636719 7.88647461 C25 8 25 8 29 9 C29 6.03 29 3.06 29 0 C31 2 31 2 31.3125 5.5 C31.209375 6.655 31.10625 7.81 31 9 C27.6428713 11.2380858 26.48862636 11.25650054 22.5625 11.265625 C21.50289062 11.26820312 20.44328125 11.27078125 19.3515625 11.2734375 C17.69253906 11.26183594 17.69253906 11.26183594 16 11.25 C14.89398438 11.25773437 13.78796875 11.26546875 12.6484375 11.2734375 C11.05902344 11.26957031 11.05902344 11.26957031 9.4375 11.265625 C8.46683594 11.26336914 7.49617187 11.26111328 6.49609375 11.25878906 C4 11 4 11 1 9 C0.48828125 6.8359375 0.48828125 6.8359375 0.3125 4.375 C0.24675781 3.55773437 0.18101562 2.74046875 0.11328125 1.8984375 C0.07589844 1.27195312 0.03851563 0.64546875 0 0 Z " fill="#171A36" transform="translate(146,97)"/>
<path d="M0 0 C1.30195312 -0.01224609 2.60390625 -0.02449219 3.9453125 -0.03710938 C5.20859375 -0.03904297 6.471875 -0.04097656 7.7734375 -0.04296875 C8.91989746 -0.04707764 10.06635742 -0.05118652 11.24755859 -0.05541992 C15.00715943 0.21498653 18.04642939 1.03929705 21.625 2.1875 C21.625 2.5175 21.625 2.8475 21.625 3.1875 C14.59273247 3.29587399 7.6380856 3.1591204 0.625 2.625 C-6.45864521 2.09920719 -13.31955797 2.40221964 -20.375 3.1875 C-20.045 2.5275 -19.715 1.8675 -19.375 1.1875 C-13.14645592 -0.59198303 -6.41476531 0.00315687 0 0 Z " fill="#1D2142" transform="translate(111.375,7.8125)"/>
<path d="M0 0 C-2.83725935 1.89150624 -4.29357912 2.3410553 -7.5 3.0625 C-10.1586192 3.93863587 -11.5982455 4.42698476 -13.21875 6.73828125 C-15.5737591 13.17923113 -15.69567065 20.21030726 -16 27 C-19.29272057 21.76738203 -17.98701145 15.82772203 -17 10 C-13.76998766 2.9188191 -7.88060492 -0.7688395 0 0 Z " fill="#121533" transform="translate(450,54)"/>
<path d="M0 0 C-0.66 1.32 -1.32 2.64 -2 4 C-2.66 4 -3.32 4 -4 4 C-4 4.66 -4 5.32 -4 6 C-5.32 6.33 -6.64 6.66 -8 7 C-8 7.66 -8 8.32 -8 9 C-9.65788785 10.34423339 -11.32576317 11.67618483 -13 13 C-13.556875 13.7425 -14.11375 14.485 -14.6875 15.25 C-15.3371875 16.11625 -15.3371875 16.11625 -16 17 C-16.66 17 -17.32 17 -18 17 C-18.66 18.32 -19.32 19.64 -20 21 C-20.33 20.34 -20.66 19.68 -21 19 C-17.09463641 12.78034688 -7.86845122 0 0 0 Z " fill="#1A1C36" transform="translate(78,52)"/>
<path d="M0 0 C0.66 0.33 1.32 0.66 2 1 C1 4 1 4 -1.9375 5.6875 C-5 7 -5 7 -7 7 C-7 7.66 -7 8.32 -7 9 C-12.47619048 14 -12.47619048 14 -15 14 C-15.226875 14.5775 -15.45375 15.155 -15.6875 15.75 C-17.33038023 18.5663661 -19.39533227 20.08077114 -22 22 C-19.43538698 16.2296207 -15.44562284 12.33180739 -10.5625 8.4375 C-9.63566406 7.69371094 -8.70882812 6.94992188 -7.75390625 6.18359375 C-6.39072266 5.10271484 -6.39072266 5.10271484 -5 4 C-3.33311028 2.66694553 -1.66637158 1.33370211 0 0 Z " fill="#151835" transform="translate(56,23)"/>
<path d="M0 0 C1.10396627 3.3118988 0.89044341 4.33600718 0.07421875 7.6328125 C-0.14556641 8.52097656 -0.36535156 9.40914062 -0.59179688 10.32421875 C-0.82962891 11.24847656 -1.06746094 12.17273438 -1.3125 13.125 C-1.53873047 14.05699219 -1.76496094 14.98898438 -1.99804688 15.94921875 C-2.22169922 16.83480469 -2.44535156 17.72039062 -2.67578125 18.6328125 C-2.88114502 19.44637207 -3.08650879 20.25993164 -3.2980957 21.09814453 C-4 23 -4 23 -6 24 C-6.66 23.67 -7.32 23.34 -8 23 C-8.59355614 20.35139573 -8.74209269 17.70802678 -9 15 C-8.01 15.495 -8.01 15.495 -7 16 C-6.375 18.0625 -6.375 18.0625 -6 20 C-5.85377197 19.42967041 -5.70754395 18.85934082 -5.55688477 18.27172852 C-4.89565885 15.70105211 -4.22915229 13.13177426 -3.5625 10.5625 C-3.21735352 9.21575195 -3.21735352 9.21575195 -2.86523438 7.84179688 C-2.64287109 6.98779297 -2.42050781 6.13378906 -2.19140625 5.25390625 C-1.98717041 4.46314697 -1.78293457 3.6723877 -1.57250977 2.85766602 C-1 1 -1 1 0 0 Z " fill="#101330" transform="translate(293,61)"/>
<path d="M0 0 C1.99954746 -0.04254356 4.00041636 -0.04080783 6 0 C7 1 7 1 7.09765625 4.37890625 C7.09098369 5.77347077 7.07902532 7.16801743 7.0625 8.5625 C7.05798828 9.27341797 7.05347656 9.98433594 7.04882812 10.71679688 C7.03700864 12.47790013 7.01907263 14.23896036 7 16 C2.71 16 -1.58 16 -6 16 C-6 15.67 -6 15.34 -6 15 C-2.37 15 1.26 15 5 15 C5 10.71 5 6.42 5 2 C3.35 1.67 1.7 1.34 0 1 C0 0.67 0 0.34 0 0 Z " fill="#161832" transform="translate(515,41)"/>
<path d="M0 0 C0.99 0.33 1.98 0.66 3 1 C3.984375 3.36328125 3.984375 3.36328125 4.75 6.3125 C5.01296875 7.27800781 5.2759375 8.24351563 5.546875 9.23828125 C6 12 6 12 5 16 C4.01 13.03 3.02 10.06 2 7 C1.34 8.98 0.68 10.96 0 13 C-0.33 13 -0.66 13 -1 13 C-1.02686553 11.02090602 -1.04633375 9.04171029 -1.0625 7.0625 C-1.07410156 5.96035156 -1.08570313 4.85820313 -1.09765625 3.72265625 C-1 1 -1 1 0 0 Z " fill="#161839" transform="translate(256,37)"/>
<path d="M0 0 C2 1 2 1 2.8515625 3.2578125 C4.31010352 8.66472719 5.37350585 13.39741222 5 19 C4.34 18.34 3.68 17.68 3 17 C3 16.01 3 15.02 3 14 C2.34 13.67 1.68 13.34 1 13 C-0.0317435 10.06699331 -0.10790988 7.33787164 -0.0625 4.25 C-0.05347656 3.45078125 -0.04445313 2.6515625 -0.03515625 1.828125 C-0.02355469 1.22484375 -0.01195312 0.6215625 0 0 Z " fill="#1A1E3E" transform="translate(273,32)"/>
<path d="M0 0 C0.82638376 2.89234315 1 4.88742431 1 8 C0.34 8 -0.32 8 -1 8 C-0.67 9.65 -0.34 11.3 0 13 C-0.66 13 -1.32 13 -2 13 C-2.12375 13.9075 -2.2475 14.815 -2.375 15.75 C-2.92109677 18.58970323 -3.57263803 20.52590591 -5 23 C-6.09678841 19.70963477 -5.91078527 18.82405385 -5.0390625 15.5859375 C-4.81476563 14.74289063 -4.59046875 13.89984375 -4.359375 13.03125 C-4.11703125 12.1546875 -3.8746875 11.278125 -3.625 10.375 C-3.39039063 9.49070312 -3.15578125 8.60640625 -2.9140625 7.6953125 C-1.14620536 1.14620536 -1.14620536 1.14620536 0 0 Z " fill="#191C38" transform="translate(302,26)"/>
<path d="M0 0 C1.32 0.33 2.64 0.66 4 1 C4.054348 3.0622048 4.09294961 5.12482816 4.125 7.1875 C4.14820313 8.33605469 4.17140625 9.48460938 4.1953125 10.66796875 C4.00484152 13.91740372 3.39360127 16.08660521 2 19 C0.68 18.34 -0.64 17.68 -2 17 C-1.01 17 -0.02 17 1 17 C0.67 11.39 0.34 5.78 0 0 Z " fill="#1A1D3C" transform="translate(385,77)"/>
<path d="M0 0 C-0.59167969 0.37511719 -1.18335938 0.75023437 -1.79296875 1.13671875 C-8.18625596 5.27723265 -13.2988027 9.18200497 -17 16 C-18 13 -18 13 -17.1015625 11.16796875 C-13.29264085 6.05917701 -6.92979376 -2.30993125 0 0 Z " fill="#131634" transform="translate(542,44)"/>
<path d="M0 0 C6.78982507 0.37035409 11.26884891 2.40476401 17 6 C14.50935112 6.68707555 12.62113708 7 10 7 C10 6.34 10 5.68 10 5 C9.46375 4.896875 8.9275 4.79375 8.375 4.6875 C5.37497956 3.81907303 2.7620465 2.44379704 0 1 C0 0.67 0 0.34 0 0 Z " fill="#202341" transform="translate(144,14)"/>
<path d="M0 0 C1.79140292 1.79140292 3.48033031 3.56509448 5.125 5.5 C8.78612259 8.68358486 12.37511071 9.76065058 17 11 C17 11.33 17 11.66 17 12 C11.28272496 12.080525 7.12763213 11.77421835 2.875 7.6875 C0.11282925 4.75348913 0 4.29750726 0 0 Z " fill="#111832" transform="translate(434,82)"/>
<path d="M0 0 C1.32 0 2.64 0 4 0 C5.32229189 2.64458379 5.09677194 4.67761301 5.0625 7.625 C5.05347656 8.62789062 5.04445313 9.63078125 5.03515625 10.6640625 C5.02355469 11.43492188 5.01195312 12.20578125 5 13 C3.35 13.33 1.7 13.66 0 14 C0.66 13.34 1.32 12.68 2 12 C2.46162427 9.56747339 2.46162427 9.56747339 2.625 6.875 C2.69976562 5.96492188 2.77453125 5.05484375 2.8515625 4.1171875 C2.90054687 3.41851562 2.94953125 2.71984375 3 2 C2.01 2 1.02 2 0 2 C0 1.34 0 0.68 0 0 Z " fill="#13142C" transform="translate(466,92)"/>
<path d="M0 0 C3.181798 1.06059933 6.0173094 2.47551369 9 4 C9 4.33 9 4.66 9 5 C4.545 5.495 4.545 5.495 0 6 C-1 2 -1 2 0 0 Z " fill="#1F2445" transform="translate(92,34)"/>
<path d="M0 0 C0.99 0.33 1.98 0.66 3 1 C2.34 1.495 1.68 1.99 1 2.5 C-1.8827217 6.10340212 -1.30200997 8.46985042 -1 13 C-1.99 12.67 -2.98 12.34 -4 12 C-3.91253716 10.56138706 -3.80434652 9.12402492 -3.6875 7.6875 C-3.62949219 6.88699219 -3.57148437 6.08648437 -3.51171875 5.26171875 C-2.91793306 2.63727666 -2.04219706 1.69179328 0 0 Z " fill="#1C2140" transform="translate(86,94)"/>
<path d="M0 0 C0.99 0.495 0.99 0.495 2 1 C3.47180796 5.82425944 4.25376143 9.92477148 4 15 C3.01 14.67 2.02 14.34 1 14 C0.67 9.38 0.34 4.76 0 0 Z " fill="#161A34" transform="translate(280,60)"/>
<path d="M0 0 C0.99 0.66 1.98 1.32 3 2 C2.01 2 1.02 2 0 2 C-0.66 3.65 -1.32 5.3 -2 7 C-3.98 6.34 -5.96 5.68 -8 5 C-5.59078295 2.59078295 -3.05665491 1.46187844 0 0 Z " fill="#191C37" transform="translate(88,46)"/>
<path d="M0 0 C0 0.66 0 1.32 0 2 C-1.32 2 -2.64 2 -4 2 C-4.66 2.66 -5.32 3.32 -6 4 C-7.65 2.35 -9.3 0.7 -11 -1 C-6.70700357 -2.26264601 -4.12168689 -1.62950412 0 0 Z " fill="#1C2142" transform="translate(397,44)"/>
<path d="M0 0 C2.58484592 0.9804588 3.94843031 1.93922143 5.75 4.0625 C7.46368617 8.0896625 7.2538117 11.68520104 7 16 C6.67 16 6.34 16 6 16 C5.9175 14.96875 5.835 13.9375 5.75 12.875 C4.93434209 8.66076747 3.49727949 6.4337593 1 3 C0.67 2.01 0.34 1.02 0 0 Z " fill="#161A33" transform="translate(398,46)"/>
<path d="M0 0 C0 0.66 0 1.32 0 2 C-3.63 3.32 -7.26 4.64 -11 6 C-11.33 5.01 -11.66 4.02 -12 3 C-10.56445975 2.49440092 -9.1264798 1.9957251 -7.6875 1.5 C-6.88699219 1.2215625 -6.08648437 0.943125 -5.26171875 0.65625 C-3 0 -3 0 0 0 Z " fill="#1A1E33" transform="translate(91,39)"/>
<path d="M0 0 C0.66 0 1.32 0 2 0 C2 0.66 2 1.32 2 2 C2.66 2 3.32 2 4 2 C4.33 2.66 4.66 3.32 5 4 C5.99 4.33 6.98 4.66 8 5 C8 5.66 8 6.32 8 7 C6.53932801 6.54917531 5.08151968 6.08906463 3.625 5.625 C2.81289062 5.36976562 2.00078125 5.11453125 1.1640625 4.8515625 C-1 4 -1 4 -3 2 C-2.01 2 -1.02 2 0 2 C0 1.34 0 0.68 0 0 Z " fill="#1D2146" transform="translate(132,36)"/>
<path d="M0 0 C0.66 0 1.32 0 2 0 C1 3 1 3 -0.671875 4.16796875 C-7.57251908 7.55343511 -7.57251908 7.55343511 -12 7 C-9.62905601 5.41937067 -7.4213606 4.17309564 -4.875 2.9375 C-2.24526174 1.74120952 -2.24526174 1.74120952 0 0 Z " fill="#131834" transform="translate(129,129)"/>
<path d="M0 0 C0.66 0 1.32 0 2 0 C1.52389341 4.99911924 -0.03162219 7.97832683 -3 12 C-3.66 11.67 -4.32 11.34 -5 11 C-3.79986106 8.59972213 -2.59388587 6.20339152 -1.375 3.8125 C0.07320169 1.37203926 0.07320169 1.37203926 0 0 Z " fill="#181935" transform="translate(137,117)"/>
<path d="M0 0 C4.84590538 0.44053685 8.48141867 2.74505877 12 6 C12 6.66 12 7.32 12 8 C9.14940657 6.61964507 6.44119096 5.10703513 3.75 3.4375 C3.04359375 3.00308594 2.3371875 2.56867188 1.609375 2.12109375 C1.07828125 1.75113281 0.5471875 1.38117188 0 1 C0 0.67 0 0.34 0 0 Z " fill="#191F3A" transform="translate(125,74)"/>
<path d="M0 0 C0.66 0 1.32 0 2 0 C2.39253254 4.44870215 1.15305957 7.14243493 -1 11 C-1.33 11 -1.66 11 -2 11 C-1.125 3.375 -1.125 3.375 0 0 Z " fill="#1B1D36" transform="translate(51,81)"/>
<path d="M0 0 C3.14737182 0.69941596 6.02588876 1.76078698 9 3 C9 3.66 9 4.32 9 5 C3.48387097 4.38709677 3.48387097 4.38709677 1.125 2.5 C0 1 0 1 0 0 Z " fill="#1B1D3D" transform="translate(354,102)"/>
<path d="M0 0 C0.66 0 1.32 0 2 0 C3.0326802 2.78823655 3.04509293 3.8677274 2.0625 6.75 C1.711875 7.4925 1.36125 8.235 1 9 C0.34 8.67 -0.32 8.34 -1 8 C-0.67 5.36 -0.34 2.72 0 0 Z " fill="#1B1D3E" transform="translate(43,78)"/>
<path d="M0 0 C0.33 0.99 0.66 1.98 1 3 C1.66 3.33 2.32 3.66 3 4 C2.01 5.32 1.02 6.64 0 8 C-0.66 7.34 -1.32 6.68 -2 6 C-1.44444444 1.44444444 -1.44444444 1.44444444 0 0 Z " fill="#1E2547" transform="translate(147,92)"/>
<path d="M0 0 C-4.95 2.475 -4.95 2.475 -10 5 C-10 4.01 -10 3.02 -10 2 C-4.5 -1.125 -4.5 -1.125 0 0 Z " fill="#18193A" transform="translate(69,19)"/>
<path d="M0 0 C2 1 2 1 3.125 3.375 C4 6 4 6 4 9 C3.01 8.67 2.02 8.34 1 8 C0.67 5.36 0.34 2.72 0 0 Z " fill="#171A38" transform="translate(284,76)"/>
<path d="M0 0 C1.75 0.125 1.75 0.125 4 1 C6.25 4.0625 6.25 4.0625 8 7 C7.01 7 6.02 7 5 7 C0 1.53488372 0 1.53488372 0 0 Z " fill="#212542" transform="translate(157,63)"/>
<path d="M0 0 C0.66 0 1.32 0 2 0 C2 3.3 2 6.6 2 10 C-0.18043828 7.81956172 -0.56240225 6.97566473 -1 4 C-0.5625 1.75 -0.5625 1.75 0 0 Z " fill="#1F223A" transform="translate(468,44)"/>
<path d="M0 0 C2.97 0.33 5.94 0.66 9 1 C9 1.66 9 2.32 9 3 C6.1875 3.1875 6.1875 3.1875 3 3 C2.01 2.01 1.02 1.02 0 0 Z " fill="#1B1F38" transform="translate(134,11)"/>
</svg>
